<svg width="1041" height="327" viewBox="0 0 1041 327" fill="none" xmlns="http://www.w3.org/2000/svg">
<g clip-path="url(#clip0_1291_21995)">
<mask id="mask0_1291_21995" style="mask-type:luminance" maskUnits="userSpaceOnUse" x="-51" y="-100" width="572" height="464">
<path d="M520.002 -99.5469H-50.1484V363.155H520.002V-99.5469Z" fill="white"/>
</mask>
<g mask="url(#mask0_1291_21995)">
<path d="M132.152 18.2136C131.917 18.3711 129.634 21.2455 127.114 24.5922C124.555 27.939 122.272 30.7347 121.997 30.8135C121.76 30.8528 118.375 28.9628 114.556 26.561L107.588 22.2298H91.8026C78.1819 22.2298 75.8986 22.3086 74.8357 22.8597C74.1665 23.2142 70.5843 25.301 66.8838 27.5059C59.1287 32.1522 55.822 34.0421 55.5072 34.0421C55.4284 34.0421 53.1451 31.4828 50.5076 28.4117L45.705 22.7417L38.3436 22.5053C34.3282 22.3478 28.5021 22.2298 25.3921 22.2298H19.8023L19.3298 23.2142C18.9361 24.0805 19.0149 24.5135 19.8023 26.0884C20.2745 27.1122 22.5971 31.9947 24.9199 36.9953C32.5568 53.2963 34.2494 56.7612 34.8006 56.9581C35.1156 57.0763 39.0915 56.407 43.6186 55.4619C48.185 54.5563 52.0035 53.8869 52.161 54.0444C52.2792 54.2019 52.7909 56.525 53.2632 59.2419C53.6963 61.9587 54.5623 66.6049 55.1135 69.597C56.2944 75.8978 55.2315 74.6773 63.8133 79.677C66.4508 81.2132 68.9309 82.4724 69.2851 82.4724C69.6788 82.4724 72.4344 81.6463 75.5051 80.6608C79.9533 79.2052 81.2131 78.9299 82.0004 79.2439C82.5908 79.4806 83.8507 81.0168 85.1891 83.1036C88.8108 88.7732 98.3766 103.893 102.274 110.035C139.002 168.153 141.836 172.602 147.465 180.791L150.93 185.87L148.961 195.084C147.86 200.164 146.089 208.512 144.986 213.59C142.781 223.788 143.844 220.796 130.144 255.327C126.563 264.304 121.602 276.787 119.122 283.086C116.642 289.347 113.729 296.71 112.627 299.427C109.871 306.396 109.36 305.924 120.067 306.238C128.571 306.475 128.648 306.475 129.476 305.608C129.948 305.137 136.838 294.978 144.828 283.086C152.819 271.156 160.299 259.973 161.519 258.202C162.701 256.39 163.764 255.131 163.843 255.366C163.922 255.603 163.489 267.298 162.857 281.353C161.952 303.364 161.873 307.025 162.347 307.499C162.78 307.932 165.772 308.169 175.415 308.523C186.241 308.916 188.012 308.916 188.524 308.444C188.957 307.971 189.273 303.876 190.06 288.796C190.611 278.283 191.044 269.265 191.044 268.715C191.083 266.865 191.674 268.715 195.493 282.102C201.987 304.9 203.327 309.466 203.799 309.743C204.035 309.9 207.262 310.057 210.962 310.057C216.474 310.057 217.812 309.94 218.207 309.466C218.521 309.074 218.64 307.695 218.561 305.058L218.403 301.198L228.757 301.08C237.062 301.001 239.267 300.884 239.7 300.451C240.291 299.821 240.408 298.443 243.441 252.571C244.345 238.829 245.212 227.449 245.37 227.293C245.566 227.016 284.342 229.143 284.538 229.419C284.617 229.536 287.963 238.829 295.6 260.131L300.088 272.613L299.418 290.409C298.75 307.813 298.75 308.207 299.497 308.719C300.048 309.152 301.821 309.27 306.78 309.27C312.646 309.27 313.433 309.191 313.984 308.561C314.575 307.932 314.652 306.159 314.731 293.678L314.85 279.542L316.267 282.495C317.055 284.11 320.047 290.567 322.919 296.868C325.793 303.129 328.313 308.523 328.51 308.798C328.825 309.152 330.793 309.27 335.91 309.27C341.855 309.27 342.997 309.191 343.43 308.64C343.863 308.09 343.114 303.009 338.509 275.251C335.517 257.256 332.761 240.602 332.328 238.238C331.935 235.876 331.581 233.554 331.581 233.121C331.581 232.489 332.919 231.506 337.603 228.749C340.871 226.82 352.719 219.851 363.86 213.275C375.002 206.7 386.693 199.77 389.841 197.919C392.991 196.069 396.691 193.904 398.069 193.037C400.825 191.422 401.337 191.343 404.998 191.973L407.439 192.406L408.502 198.745C409.053 202.251 410.863 213.236 412.478 223.158C414.091 233.042 415.429 241.545 415.429 241.978C415.429 242.452 410.587 251.271 404.644 261.588C398.699 271.905 391.141 285.015 387.835 290.764C384.566 296.512 380.631 303.285 379.135 305.884C376.419 310.648 376.064 311.594 376.969 312.342C377.678 312.972 411.02 313.838 411.573 313.286C411.808 313.051 412.635 311.397 413.462 309.586C414.288 307.774 418.619 298.168 423.107 288.205C427.594 278.242 432.908 266.47 434.916 262.021C449.009 230.639 452.553 222.804 452.828 222.488C453.182 222.134 453.182 222.055 454.954 228.749C455.701 231.544 457.512 238.041 458.929 243.122C460.897 250.208 461.567 253.2 461.725 255.918C461.842 257.847 462.433 270.526 463.063 284.031C463.929 302.813 464.322 308.719 464.716 309.074C465.109 309.466 468.85 309.665 479.596 309.861C492.588 310.136 494.043 310.098 494.517 309.507C494.95 308.995 495.146 302.576 495.579 277.653C495.934 256.744 496.288 244.185 496.721 239.578C497.035 235.797 498.138 223.197 499.122 211.621L500.893 190.556L500.46 120.076C500.027 44.6732 499.792 26.2066 499.239 25.3403C498.964 24.8679 472.433 24.7891 326.188 24.6709L153.449 24.5529L152.819 25.6554C152.465 26.2461 151.402 28.1753 150.457 29.9079C149.513 31.6403 147.663 35.1052 146.285 37.5859C144.947 40.0665 142.821 44.004 141.561 46.3271C139.907 49.477 139.042 50.6583 138.215 51.0125C137.427 51.3276 133.492 51.3669 123.531 51.17L109.95 50.855V49.3588V47.8233H123.452H136.915L143.765 35.1447L150.615 22.5053L149.67 20.6941C148.726 18.9223 148.686 18.883 146.364 18.6467C142.152 18.2136 132.585 17.8986 132.152 18.2136ZM489.438 47.8626C488.414 55.7769 486.288 76.4485 483.337 106.885C482.785 112.397 482.155 118.501 481.958 120.469C480.501 133.66 479.005 146.062 477.983 153.112L476.841 161.34L480.422 173.389C482.392 180.004 484.871 188.43 485.974 192.131C487.037 195.792 488.533 200.753 489.242 203.156C489.95 205.518 491.367 210.321 492.389 213.748L494.241 220.047L493.531 263.871L492.823 307.695H486.879C483.651 307.695 477.667 307.578 473.651 307.42L466.33 307.183L466.093 300.844C465.937 297.34 465.384 285.055 464.834 273.518L463.85 252.492L458.891 234.538C456.174 224.654 453.537 215.047 453.025 213.196C452.553 211.345 450.505 204.022 448.537 196.934C446.568 189.809 444.954 183.666 444.954 183.233C444.954 182.799 445.782 179.846 446.766 176.656C449.521 167.758 455.032 148.385 461.684 124.013C470.226 92.868 475.856 74.1652 479.242 65.3448C481.013 60.8169 490.343 38.767 490.462 38.8852C490.501 38.9247 490.029 42.9802 489.438 47.8626ZM488.454 115.548C488.808 127.124 489.242 141.495 489.398 147.44L489.713 158.269L487.981 171.066C487.037 178.075 486.209 183.902 486.131 183.981C486.013 184.059 485.855 183.783 485.738 183.39C485.62 182.996 484.084 177.838 482.351 171.893L479.163 161.143L480.345 152.6C482.116 140.157 482.628 135.943 484.517 117.714C485.147 111.846 487.037 92.4349 487.116 90.939C487.351 87.5124 487.902 97.9081 488.454 115.548ZM184.235 134.84C195.649 137.479 209.703 140.668 215.45 141.967C221.199 143.267 229.425 145.157 233.757 146.102C238.087 147.086 243.4 148.307 245.566 148.819C247.732 149.331 254.738 150.906 261.116 152.363C283.868 157.52 309.023 163.23 313.079 164.175C315.362 164.688 322.802 166.38 329.613 167.916C336.422 169.451 342.288 170.79 342.564 170.908C342.918 171.027 341.619 171.971 339.414 173.231C337.406 174.412 335.477 175.515 335.163 175.672C334.534 176.067 334.927 177.759 335.675 177.759C335.951 177.759 343.272 173.665 352.011 168.703C360.711 163.702 368.073 159.647 368.348 159.647C368.623 159.647 375.435 161.222 383.503 163.19C391.614 165.121 398.266 166.734 398.306 166.734C398.462 166.734 399.25 169.845 400.707 176.381C401.454 179.846 402.361 183.704 402.636 184.965L403.187 187.248L400.944 188.706C399.723 189.493 397.715 190.673 396.535 191.343C395.353 192.013 389.331 195.557 383.149 199.219C376.969 202.84 370.081 206.935 367.797 208.275C365.514 209.613 359.688 213.078 354.806 215.952C349.926 218.867 345.082 221.701 343.981 222.33C342.918 222.921 336.698 226.583 330.202 230.481C323.707 234.341 318.314 237.451 318.235 237.372C318.156 237.294 319.613 234.813 321.423 231.821C323.235 228.828 327.526 221.859 330.911 216.268C334.297 210.716 337.171 205.951 337.289 205.637C337.406 205.36 337.092 204.888 336.619 204.573C335.872 204.101 335.714 204.101 335.439 204.573C335.242 204.888 333.627 207.526 331.817 210.441C330.006 213.353 325.006 221.504 320.715 228.552L312.881 241.349L312.646 266.549C312.488 280.408 312.371 295.174 312.33 299.309L312.292 306.908H306.78H301.268V303.639C301.268 301.868 301.544 294.111 301.859 286.393L302.41 272.376L297.489 258.635C294.773 251.075 291.704 242.491 290.639 239.578C289.576 236.663 287.293 230.285 285.522 225.403C283.751 220.521 281.35 213.865 280.208 210.637C275.642 197.723 275.996 198.588 275.13 198.865C274.658 198.982 274.184 199.219 274.067 199.377C273.909 199.494 275.996 205.714 278.672 213.157C281.388 220.6 283.514 226.741 283.437 226.82C283.358 226.899 272.964 226.348 260.288 225.599C247.653 224.812 225.45 223.512 210.962 222.646C196.477 221.78 184.312 221.15 183.998 221.268C183.644 221.387 181.164 224.773 178.447 228.828C175.731 232.884 169.669 241.94 164.906 248.988C160.181 256.036 149.906 271.393 142.073 283.047L127.861 304.27L120.855 304.034C116.997 303.916 113.769 303.758 113.651 303.679C113.572 303.562 115.422 298.639 117.784 292.694C120.146 286.748 123.217 278.991 124.634 275.409C126.051 271.826 129.634 262.808 132.585 255.327C138.176 241.231 145.459 222.843 154.827 199.219L160.299 185.437L160.89 173.231C161.244 166.497 161.795 154.646 162.11 146.851C162.701 133.423 162.936 130.116 163.29 130.116C163.369 130.116 172.778 132.243 184.235 134.84ZM154.001 190.163C154.513 190.91 154.945 191.738 154.985 192.013C155.024 192.604 148.805 208.512 148.607 208.313C148.41 208.078 152.584 188.785 152.819 188.785C152.977 188.785 153.489 189.414 154.001 190.163ZM202.973 224.458C208.05 224.694 208.365 224.773 208.562 225.561C208.641 225.994 209.545 234.341 210.531 244.106C211.515 253.831 213.011 268.636 213.837 276.983C215.373 291.907 216.553 307.104 216.199 307.458C216.081 307.578 213.64 307.695 210.766 307.735C206.673 307.774 205.412 307.657 205.216 307.262C204.94 306.75 201.908 296.316 194.194 269.306L191.516 259.855L191.832 255.918C192.028 253.753 192.344 245.877 192.619 238.396C192.856 230.915 193.17 224.575 193.249 224.261C193.366 223.867 193.918 223.788 195.493 223.946C196.595 224.103 199.981 224.3 202.973 224.458Z" fill="#FF4218"/>
<path d="M55.9002 79.5968C55.1128 80.8963 46.1768 103.261 46.1768 103.931C46.1768 104.679 47.3577 105.663 51.8061 108.774C54.8766 110.94 59.4432 114.128 61.9232 115.901C64.4033 117.672 66.6864 119.051 67.0408 118.972C67.3556 118.854 71.0955 117.79 75.3076 116.531C79.5196 115.31 85.7396 113.499 89.0856 112.553C97.1557 110.23 97.7462 110.033 97.7462 109.641C97.7462 109.442 96.9588 108.064 96.0535 106.608C95.1086 105.151 92.5893 101.174 90.4635 97.8279C81.2125 83.141 80.7007 82.4325 80.0708 82.6675C77.2758 83.7705 69.7176 86.0152 68.9302 86.0152C68.3792 86.0152 65.5055 84.558 62.4742 82.8253C56.3332 79.2426 56.1757 79.1251 55.9002 79.5968Z" fill="#FF4218"/>
</g>
</g>
<path d="M630.997 86.7188H607.915C607.607 84.349 606.976 82.21 606.022 80.3018C605.068 78.3937 603.806 76.7626 602.236 75.4084C600.667 74.0542 598.805 73.0232 596.65 72.3153C594.527 71.5767 592.172 71.2074 589.587 71.2074C585.002 71.2074 581.047 72.3307 577.723 74.5774C574.43 76.8241 571.891 80.071 570.106 84.3182C568.351 88.5653 567.474 93.705 567.474 99.7372C567.474 106.016 568.367 111.278 570.152 115.526C571.968 119.742 574.507 122.927 577.769 125.082C581.062 127.205 584.955 128.267 589.449 128.267C591.972 128.267 594.265 127.944 596.327 127.298C598.42 126.651 600.251 125.713 601.821 124.482C603.421 123.22 604.729 121.696 605.745 119.911C606.791 118.095 607.515 116.049 607.915 113.771L630.997 113.91C630.597 118.095 629.381 122.219 627.35 126.282C625.35 130.344 622.595 134.053 619.087 137.408C615.578 140.732 611.3 143.378 606.253 145.348C601.236 147.318 595.481 148.303 588.987 148.303C580.431 148.303 572.768 146.425 565.997 142.67C559.257 138.885 553.933 133.376 550.024 126.143C546.115 118.911 544.161 110.109 544.161 99.7372C544.161 89.3348 546.146 80.5173 550.116 73.2848C554.087 66.0523 559.457 60.5587 566.228 56.804C572.999 53.0492 580.585 51.1719 588.987 51.1719C594.712 51.1719 600.005 51.9721 604.868 53.5724C609.73 55.142 614.008 57.4503 617.702 60.4972C621.395 63.5133 624.396 67.2218 626.704 71.6229C629.012 76.0239 630.443 81.0559 630.997 86.7188Z" fill="#FF4218"/>
<path d="M659.512 147.01H634.952L666.852 52.4645H697.275L729.175 147.01H704.615L682.41 76.2855H681.671L659.512 147.01ZM656.234 109.801H707.57V127.159H656.234V109.801Z" fill="#FF4218"/>
<path d="M721.854 71.0227V52.4645H801.766V71.0227H773.097V147.01H750.569V71.0227H721.854Z" fill="#FF4218"/>
<path d="M809.833 71.0227V52.4645H889.744V71.0227H861.076V147.01H838.547V71.0227H809.833Z" fill="#FF4218"/>
<path d="M900.904 147.01V52.4645H923.756V128.452H963.088V147.01H900.904Z" fill="#FF4218"/>
<path d="M974.918 147.01V52.4645H1040.84V71.0227H997.77V90.4119H1037.47V109.016H997.77V128.452H1040.84V147.01H974.918Z" fill="#FF4218"/>
<path d="M549.146 216.558V202.283H610.616V216.558H588.564V275.01H571.234V216.558H549.146Z" fill="#FF4218"/>
<path d="M617.201 275.01V202.283H647.244C652.689 202.283 657.388 203.265 661.342 205.23C665.319 207.171 668.385 209.965 670.539 213.611C672.694 217.233 673.771 221.53 673.771 226.501C673.771 231.544 672.67 235.829 670.468 239.357C668.267 242.86 665.142 245.536 661.093 247.382C657.045 249.205 652.251 250.116 646.711 250.116H627.713V236.267H643.444C646.096 236.267 648.309 235.924 650.085 235.237C651.884 234.527 653.245 233.462 654.169 232.041C655.092 230.597 655.554 228.75 655.554 226.501C655.554 224.252 655.092 222.394 654.169 220.926C653.245 219.435 651.884 218.322 650.085 217.588C648.286 216.831 646.072 216.452 643.444 216.452H634.779V275.01H617.201ZM658.146 241.771L676.257 275.01H657.081L639.325 241.771H658.146Z" fill="#FF4218"/>
<path d="M697.144 275.01H678.252L702.79 202.283H726.192L750.73 275.01H731.838L714.757 220.607H714.189L697.144 275.01ZM694.622 246.388H734.111V259.74H694.622V246.388Z" fill="#FF4218"/>
<path d="M819.158 228.632H801.403C801.166 226.809 800.681 225.164 799.947 223.696C799.213 222.228 798.242 220.973 797.035 219.932C795.827 218.89 794.395 218.097 792.738 217.553C791.104 216.984 789.293 216.7 787.305 216.7C783.777 216.7 780.735 217.564 778.178 219.293C775.645 221.021 773.692 223.518 772.319 226.786C770.969 230.053 770.295 234.006 770.295 238.646C770.295 243.476 770.981 247.524 772.354 250.791C773.751 254.035 775.704 256.485 778.214 258.142C780.747 259.776 783.742 260.592 787.198 260.592C789.139 260.592 790.903 260.344 792.489 259.847C794.099 259.349 795.508 258.627 796.715 257.68C797.946 256.71 798.952 255.538 799.734 254.165C800.539 252.768 801.095 251.194 801.403 249.442L819.158 249.548C818.851 252.768 817.915 255.94 816.353 259.065C814.814 262.19 812.695 265.043 809.996 267.624C807.298 270.18 804.007 272.216 800.124 273.732C796.265 275.247 791.838 276.004 786.843 276.004C780.262 276.004 774.367 274.56 769.158 271.672C763.974 268.76 759.878 264.522 756.871 258.959C753.865 253.395 752.361 246.625 752.361 238.646C752.361 230.644 753.888 223.862 756.942 218.298C759.996 212.735 764.128 208.509 769.336 205.621C774.544 202.732 780.38 201.288 786.843 201.288C791.246 201.288 795.318 201.904 799.059 203.135C802.799 204.342 806.09 206.118 808.931 208.462C811.772 210.782 814.08 213.634 815.856 217.02C817.631 220.405 818.732 224.276 819.158 228.632Z" fill="#FF4218"/>
<path d="M827.217 275.01V202.283H844.795V233.036H845.754L869.795 202.283H890.498L864.717 234.74L890.96 275.01H869.937L851.826 246.423L844.795 255.301V275.01H827.217Z" fill="#FF4218"/>
<defs>
<clipPath id="clip0_1291_21995">
<rect width="520" height="326" fill="white" transform="translate(0.161133 0.585938)"/>
</clipPath>
</defs>
</svg>
