<svg width="62" height="41" viewBox="0 0 62 41" fill="none" xmlns="http://www.w3.org/2000/svg">
<mask id="mask0_1292_22263" style="mask-type:luminance" maskUnits="userSpaceOnUse" x="0" y="0" width="62" height="41">
<path d="M61.96 0.65625H0.0195312V40.5339H61.96V0.65625Z" fill="white"/>
</mask>
<g mask="url(#mask0_1292_22263)">
<mask id="mask1_1292_22263" style="mask-type:luminance" maskUnits="userSpaceOnUse" x="-6" y="-12" width="68" height="58">
<path d="M61.9405 -11.5938H-5.97363V45.0059H61.9405V-11.5938Z" fill="white"/>
</mask>
<g mask="url(#mask1_1292_22263)">
<path d="M15.7409 2.81249C15.7129 2.83176 15.441 3.18337 15.1408 3.59275C14.836 4.00214 14.564 4.34412 14.5313 4.35376C14.5031 4.35857 14.0998 4.12738 13.6449 3.83358L12.8149 3.30377H10.9346C9.31219 3.30377 9.04021 3.31341 8.9136 3.38082C8.83389 3.42419 8.40719 3.67945 7.9664 3.94916C7.04265 4.51752 6.64876 4.7487 6.61127 4.7487C6.60188 4.7487 6.3299 4.43564 6.01573 4.05997L5.44367 3.36639L4.5668 3.33747C4.0885 3.3182 3.39452 3.30377 3.02407 3.30377H2.35823L2.30195 3.42419C2.25505 3.53016 2.26444 3.58312 2.35823 3.77577C2.41448 3.90101 2.69114 4.49825 2.96782 5.10995C3.8775 7.10395 4.07912 7.52779 4.14477 7.55188C4.1823 7.56634 4.65589 7.48447 5.19514 7.36886C5.73907 7.25808 6.19392 7.1762 6.21268 7.19546C6.22676 7.21473 6.28771 7.4989 6.34397 7.83124C6.39556 8.16357 6.49871 8.73192 6.56437 9.09792C6.70503 9.86866 6.57843 9.71937 7.60066 10.331C7.91483 10.5189 8.21025 10.6729 8.25244 10.6729C8.29933 10.6729 8.62757 10.5718 8.99334 10.4513C9.52319 10.2732 9.67326 10.2396 9.76704 10.278C9.83736 10.3069 9.98744 10.4948 10.1469 10.7501C10.5783 11.4436 11.7177 13.2932 12.182 14.0445C16.5569 21.1537 16.8944 21.6979 17.5649 22.6996L17.9777 23.3209L17.7431 24.448C17.612 25.0694 17.401 26.0906 17.2696 26.7117C17.007 27.9592 17.1336 27.5932 15.5017 31.8172C15.0752 32.9153 14.4842 34.4423 14.1888 35.2128C13.8934 35.9787 13.5464 36.8793 13.4152 37.2117C13.0869 38.0642 13.026 38.0064 14.3014 38.0448C15.3144 38.0738 15.3235 38.0738 15.4222 37.9678C15.4784 37.9102 16.2991 36.6675 17.2508 35.2128C18.2027 33.7535 19.0937 32.3855 19.239 32.1689C19.3798 31.9472 19.5064 31.7932 19.5158 31.822C19.5252 31.8509 19.4737 33.2815 19.3984 35.0008C19.2906 37.6933 19.2812 38.1411 19.3376 38.1991C19.3892 38.252 19.7456 38.281 20.8942 38.3243C22.1838 38.3724 22.3947 38.3724 22.4557 38.3147C22.5073 38.2568 22.5449 37.7559 22.6387 35.9113C22.7043 34.6253 22.7559 33.5221 22.7559 33.4549C22.7605 33.2286 22.8309 33.4549 23.2858 35.0924C24.0594 37.8812 24.219 38.4397 24.2752 38.4736C24.3033 38.4928 24.6877 38.512 25.1285 38.512C25.785 38.512 25.9444 38.4977 25.9915 38.4397C26.0289 38.3917 26.043 38.2231 26.0336 37.9005L26.0148 37.4283L27.2481 37.4139C28.2374 37.4042 28.5 37.3899 28.5516 37.3369C28.622 37.2599 28.636 37.0913 28.9972 31.4801C29.1049 29.7991 29.2082 28.407 29.227 28.388C29.2504 28.3541 33.8692 28.6143 33.8926 28.648C33.902 28.6623 34.3005 29.7991 35.2102 32.4048L35.7448 33.9317L35.665 36.1086C35.5854 38.2375 35.5854 38.2857 35.6744 38.3483C35.74 38.4013 35.9512 38.4157 36.5419 38.4157C37.2407 38.4157 37.3344 38.4061 37.4001 38.3291C37.4704 38.252 37.4796 38.0352 37.489 36.5084L37.5032 34.7793L37.672 35.1405C37.7659 35.338 38.1223 36.1279 38.4644 36.8987C38.8067 37.6645 39.1069 38.3243 39.1303 38.358C39.1679 38.4013 39.4023 38.4157 40.0118 38.4157C40.7199 38.4157 40.856 38.4061 40.9075 38.3387C40.9591 38.2714 40.8699 37.6498 40.3214 34.2544C39.965 32.0532 39.6367 30.016 39.5851 29.7268C39.5383 29.4379 39.4961 29.1538 39.4961 29.1009C39.4961 29.0235 39.6555 28.9033 40.2135 28.5661C40.6027 28.3301 42.014 27.4776 43.3411 26.6732C44.6683 25.8689 46.0609 25.0212 46.4359 24.7948C46.8111 24.5685 47.2518 24.3037 47.4159 24.1976C47.7442 24.0001 47.8052 23.9904 48.2413 24.0675L48.5321 24.1204L48.6587 24.8958C48.7243 25.3247 48.9399 26.6684 49.1323 27.8821C49.3244 29.0912 49.4838 30.1313 49.4838 30.1843C49.4838 30.2423 48.907 31.321 48.1991 32.5831C47.491 33.8451 46.5907 35.4487 46.1969 36.152C45.8075 36.8551 45.3388 37.6836 45.1606 38.0015C44.8371 38.5843 44.7948 38.7 44.9026 38.7915C44.987 38.8686 48.9586 38.9745 49.0245 38.907C49.0525 38.8782 49.1511 38.6759 49.2495 38.4544C49.3479 38.2327 49.8638 37.0577 50.3984 35.839C50.9328 34.6202 51.5658 33.1802 51.805 32.636C53.4837 28.7972 53.9059 27.8388 53.9386 27.8002C53.9808 27.7569 53.9808 27.7472 54.1919 28.5661C54.2808 28.9079 54.4966 29.7027 54.6654 30.3242C54.8998 31.191 54.9796 31.557 54.9984 31.8895C55.0123 32.1254 55.0827 33.6764 55.1578 35.3284C55.2609 37.6259 55.3077 38.3483 55.3547 38.3917C55.4015 38.4397 55.8471 38.464 57.1271 38.488C58.6747 38.5216 58.848 38.517 58.9045 38.4447C58.956 38.3821 58.9794 37.5969 59.031 34.5482C59.0732 31.9905 59.1154 30.4543 59.167 29.8907C59.2044 29.4282 59.3358 27.8869 59.453 26.4709L59.6639 23.8941L59.6124 15.2727C59.5608 6.04914 59.5328 3.79023 59.4669 3.68426C59.4342 3.62647 56.2739 3.61683 38.8537 3.60238L18.2777 3.58794L18.2027 3.7228C18.1605 3.79506 18.0339 4.03105 17.9213 4.24299C17.8089 4.4549 17.5885 4.87874 17.4244 5.18219C17.265 5.48563 17.0118 5.96728 16.8617 6.25145C16.6647 6.63676 16.5616 6.78126 16.4631 6.82459C16.3692 6.86313 15.9005 6.86794 14.714 6.84386L13.0963 6.80532V6.6223V6.43447H14.7046H16.3083L17.1242 4.88357L17.9402 3.33747L17.8276 3.11592C17.7151 2.89918 17.7104 2.89438 17.4338 2.86547C16.9321 2.81249 15.7925 2.77396 15.7409 2.81249ZM58.2995 6.43928C58.1775 7.40739 57.9243 9.93603 57.5727 13.6591C57.507 14.3334 57.4319 15.0801 57.4085 15.3208C57.2349 16.9344 57.0567 18.4514 56.935 19.3138L56.799 20.3203L57.2255 21.7942C57.4602 22.6034 57.7555 23.6341 57.8869 24.0868C58.0135 24.5346 58.1917 25.1415 58.2761 25.4354C58.3605 25.7243 58.5292 26.3119 58.651 26.7311L58.8716 27.5016L58.787 32.8623L58.7027 38.2231H57.9947C57.6101 38.2231 56.8974 38.2087 56.419 38.1894L55.5469 38.1604L55.5187 37.385C55.5001 36.9564 55.4342 35.4536 55.3687 34.0424L55.2515 31.4704L54.6608 29.2742C54.3372 28.0651 54.0231 26.89 53.9621 26.6635C53.9059 26.4371 53.6619 25.5413 53.4275 24.6743C53.193 23.8028 53.0007 23.0513 53.0007 22.9983C53.0007 22.9453 53.0993 22.584 53.2165 22.1938C53.5447 21.1054 54.2012 18.7356 54.9935 15.7543C56.011 11.9445 56.6816 9.65672 57.085 8.57778C57.2959 8.0239 58.4073 5.32667 58.4214 5.34113C58.4261 5.34596 58.3699 5.84205 58.2995 6.43928ZM58.1823 14.7188C58.2244 16.1349 58.2761 17.8928 58.2947 18.62L58.3322 19.9446L58.1259 21.51C58.0135 22.3674 57.9148 23.0802 57.9056 23.0898C57.8915 23.0994 57.8727 23.0656 57.8587 23.0176C57.8447 22.9694 57.6617 22.3384 57.4553 21.6112L57.0756 20.2962L57.2163 19.2512C57.4273 17.7291 57.4883 17.2136 57.7133 14.9838C57.7883 14.266 58.0135 11.8916 58.0229 11.7086C58.0509 11.2894 58.1165 12.5611 58.1823 14.7188ZM21.9448 17.0787C23.3044 17.4015 24.9785 17.7916 25.6631 17.9505C26.3479 18.1095 27.3277 18.3407 27.8437 18.4563C28.3595 18.5767 28.9923 18.7261 29.2504 18.7887C29.5084 18.8513 30.3429 19.044 31.1026 19.2222C33.8127 19.853 36.8091 20.5515 37.2923 20.6671C37.5642 20.7298 38.4504 20.9368 39.2617 21.1247C40.0728 21.3125 40.7715 21.4763 40.8044 21.4907C40.8466 21.5053 40.6918 21.6207 40.4292 21.7749C40.19 21.9193 39.9602 22.0543 39.9228 22.0735C39.8479 22.1218 39.8947 22.3287 39.9838 22.3287C40.0167 22.3287 40.8887 21.828 41.9297 21.221C42.966 20.6092 43.8429 20.1132 43.8757 20.1132C43.9084 20.1132 44.7199 20.3059 45.6809 20.5466C46.647 20.7828 47.4394 20.9801 47.4442 20.9801C47.4628 20.9801 47.5566 21.3607 47.7302 22.1602C47.8191 22.584 47.9272 23.056 47.9599 23.2102L48.0256 23.4895L47.7584 23.6678C47.613 23.7641 47.3738 23.9084 47.2332 23.9904C47.0924 24.0724 46.3751 24.5059 45.6387 24.9538C44.9026 25.3968 44.0821 25.8977 43.8101 26.0616C43.5381 26.2253 42.8441 26.6491 42.2626 27.0007C41.6813 27.3572 41.1043 27.7039 40.9732 27.7809C40.8466 27.8531 40.1057 28.3011 39.3319 28.7779C38.5582 29.2501 37.9158 29.6305 37.9064 29.6209C37.897 29.6113 38.0706 29.3078 38.2862 28.9418C38.502 28.5757 39.0131 27.7232 39.4163 27.0393C39.8197 26.3602 40.162 25.7773 40.1761 25.7389C40.19 25.705 40.1526 25.6473 40.0962 25.6087C40.0073 25.551 39.9884 25.551 39.9557 25.6087C39.9322 25.6473 39.7398 25.97 39.5243 26.3265C39.3085 26.6828 38.7129 27.6798 38.2018 28.542L37.2687 30.1073L37.2407 33.1899C37.2219 34.8852 37.2079 36.6914 37.203 37.1972L37.1985 38.1268H36.5419H35.8854V37.7269C35.8854 37.5103 35.9182 36.5614 35.9558 35.6173L36.0214 33.9027L35.4352 32.2218C35.1117 31.2971 34.7461 30.247 34.6193 29.8907C34.4927 29.5341 34.2207 28.7539 34.0098 28.1568C33.7988 27.5596 33.5128 26.7454 33.3768 26.3505C32.8329 24.7708 32.8751 24.8766 32.7719 24.9105C32.7157 24.9248 32.6592 24.9538 32.6453 24.9732C32.6265 24.9875 32.8751 25.7483 33.1938 26.6588C33.5173 27.5692 33.7706 28.3204 33.7614 28.3301C33.752 28.3398 32.5139 28.2724 31.004 28.1807C29.499 28.0845 26.8542 27.9254 25.1285 27.8195C23.4031 27.7136 21.954 27.6365 21.9166 27.6509C21.8744 27.6655 21.579 28.0797 21.2554 28.5757C20.9319 29.0719 20.2098 30.1796 19.6424 31.0418C19.0796 31.9039 17.8557 33.7824 16.9227 35.208L15.2298 37.8041L14.3953 37.7752C13.9357 37.7608 13.5512 37.7415 13.5371 37.7318C13.5277 37.7175 13.7481 37.1153 14.0294 36.3881C14.3108 35.6607 14.6766 34.7119 14.8454 34.2737C15.0142 33.8354 15.441 32.7323 15.7925 31.8172C16.4585 30.0929 17.326 27.8436 18.4419 24.9538L19.0937 23.268L19.1641 21.7749C19.2062 20.9511 19.2719 19.5015 19.3094 18.548C19.3798 16.9054 19.4078 16.5009 19.4499 16.5009C19.4594 16.5009 20.5801 16.761 21.9448 17.0787ZM18.3435 23.8461C18.4045 23.9374 18.4559 24.0387 18.4607 24.0724C18.4653 24.1446 17.7246 26.0906 17.701 26.0662C17.6775 26.0375 18.1747 23.6775 18.2027 23.6775C18.2215 23.6775 18.2825 23.7544 18.3435 23.8461ZM24.1768 28.0412C24.7816 28.07 24.8191 28.0797 24.8426 28.1761C24.852 28.2291 24.9597 29.2501 25.0771 30.4446C25.1943 31.6342 25.3725 33.4452 25.4709 34.4662C25.6539 36.2918 25.7944 38.1508 25.7523 38.1941C25.7382 38.2087 25.4475 38.2231 25.1051 38.2279C24.6176 38.2327 24.4674 38.2184 24.444 38.1701C24.4111 38.1075 24.05 36.8311 23.1311 33.5272L22.8121 32.3711L22.8498 31.8895C22.8731 31.6246 22.9108 30.6612 22.9435 29.7461C22.9717 28.831 23.0091 28.0555 23.0186 28.0171C23.0325 27.9689 23.0982 27.9592 23.2858 27.9785C23.4171 27.9977 23.8204 28.0218 24.1768 28.0412Z" fill="#FF4218"/>
<path d="M6.65821 10.3211C6.56442 10.4801 5.5 13.2158 5.5 13.2978C5.5 13.3893 5.64066 13.5097 6.17054 13.8902C6.53629 14.1552 7.08024 14.5451 7.37565 14.762C7.67107 14.9787 7.94303 15.1473 7.98524 15.1377C8.02274 15.1232 8.46822 14.9931 8.96995 14.8391C9.47167 14.6897 10.2126 14.4682 10.6111 14.3525C11.5724 14.0683 11.6428 14.0442 11.6428 13.9963C11.6428 13.9719 11.549 13.8034 11.4411 13.6253C11.3286 13.447 11.0285 12.9606 10.7753 12.5512C9.67332 10.7547 9.61236 10.668 9.53733 10.6968C9.2044 10.8317 8.30409 11.1063 8.2103 11.1063C8.14467 11.1063 7.80236 10.928 7.44129 10.7161C6.70979 10.2778 6.69103 10.2634 6.65821 10.3211Z" fill="#FF4218"/>
</g>
</g>
</svg>
