<svg width="784" height="690" viewBox="0 0 784 690" fill="none" xmlns="http://www.w3.org/2000/svg">
<g clip-path="url(#clip0_1292_22139)">
<g clip-path="url(#clip1_1292_22139)">
<mask id="mask0_1292_22139" style="mask-type:luminance" maskUnits="userSpaceOnUse" x="-67" y="0" width="850" height="690">
<path d="M782.845 0.585938H-66.1553V689.586H782.845V0.585938Z" fill="white"/>
</mask>
<g mask="url(#mask0_1292_22139)">
<path d="M205.304 197.971C204.954 198.206 201.554 202.486 197.801 207.47C193.991 212.453 190.591 216.616 190.181 216.734C189.829 216.792 184.789 213.978 179.102 210.401L168.726 203.952H145.22C124.938 203.952 121.538 204.069 119.955 204.89C118.959 205.418 113.624 208.525 108.114 211.808C96.566 218.727 91.642 221.541 91.1733 221.541C91.056 221.541 87.656 217.73 83.7285 213.157L76.577 204.714L65.6153 204.362C59.636 204.128 50.9605 203.952 46.3295 203.952H38.0058L37.3023 205.418C36.716 206.708 36.8333 207.352 38.0058 209.698C38.709 211.222 42.1675 218.493 45.6263 225.939C56.9983 250.212 59.5188 255.372 60.3395 255.665C60.8085 255.841 66.729 254.844 73.4703 253.437C80.27 252.089 85.956 251.092 86.1905 251.326C86.3665 251.561 87.1285 255.02 87.8318 259.066C88.4768 263.111 89.7663 270.03 90.587 274.485C92.3455 283.868 90.7628 282.05 103.542 289.495C107.469 291.783 111.162 293.658 111.69 293.658C112.276 293.658 116.379 292.428 120.952 290.96C127.576 288.793 129.452 288.383 130.624 288.85C131.503 289.203 133.379 291.49 135.372 294.598C140.765 303.04 155.009 325.555 160.813 334.7C215.504 421.243 219.724 427.868 228.106 440.063L233.266 447.625L230.334 461.345C228.694 468.91 226.056 481.34 224.414 488.903C221.131 504.088 222.714 499.633 202.314 551.053C196.981 564.42 189.594 583.008 185.901 592.388C182.209 601.71 177.871 612.675 176.23 616.72C172.126 627.098 171.364 626.395 187.309 626.863C199.971 627.215 200.086 627.215 201.319 625.925C202.021 625.223 212.281 610.095 224.179 592.388C236.079 574.623 247.216 557.97 249.034 555.333C250.794 552.635 252.376 550.76 252.494 551.11C252.611 551.463 251.966 568.878 251.026 589.808C249.679 622.583 249.561 628.035 250.266 628.74C250.911 629.385 255.366 629.738 269.726 630.265C285.846 630.85 288.484 630.85 289.246 630.148C289.891 629.443 290.361 623.345 291.534 600.89C292.354 585.235 292.999 571.808 292.999 570.988C293.056 568.233 293.936 570.988 299.624 590.923C309.294 624.87 311.289 631.67 311.991 632.083C312.344 632.315 317.149 632.55 322.659 632.55C330.866 632.55 332.859 632.375 333.446 631.67C333.914 631.085 334.091 629.033 333.974 625.105L333.739 619.358L349.156 619.183C361.524 619.065 364.806 618.89 365.451 618.245C366.331 617.308 366.506 615.255 371.021 546.948C372.369 526.485 373.659 509.54 373.894 509.308C374.186 508.895 431.926 512.063 432.219 512.473C432.336 512.648 437.319 526.485 448.691 558.205L455.374 576.793L454.376 603.293C453.381 629.208 453.381 629.795 454.494 630.558C455.314 631.203 457.954 631.378 465.339 631.378C474.074 631.378 475.246 631.26 476.066 630.323C476.946 629.385 477.061 626.745 477.179 608.16L477.356 587.11L479.466 591.508C480.639 593.913 485.094 603.528 489.371 612.91C493.651 622.233 497.404 630.265 497.696 630.675C498.166 631.203 501.096 631.378 508.716 631.378C517.569 631.378 519.269 631.26 519.914 630.44C520.559 629.62 519.444 622.055 512.586 580.72C508.131 553.925 504.026 529.125 503.381 525.605C502.796 522.088 502.269 518.63 502.269 517.985C502.269 517.045 504.261 515.58 511.236 511.475C516.104 508.603 533.746 498.225 550.336 488.433C566.926 478.643 584.336 468.323 589.024 465.568C593.714 462.813 599.224 459.588 601.276 458.298C605.379 455.893 606.141 455.775 611.594 456.713L615.229 457.358L616.811 466.798C617.631 472.018 620.326 488.375 622.731 503.15C625.134 517.868 627.126 530.53 627.126 531.175C627.126 531.88 619.916 545.013 611.066 560.375C602.214 575.738 590.959 595.26 586.036 603.82C581.169 612.38 575.309 622.465 573.081 626.335C569.036 633.43 568.509 634.838 569.856 635.953C570.911 636.89 620.561 638.18 621.384 637.358C621.734 637.008 622.966 634.545 624.196 631.848C625.426 629.15 631.876 614.845 638.559 600.01C645.241 585.175 653.154 567.645 656.144 561.02C677.129 514.29 682.406 502.623 682.816 502.153C683.344 501.625 683.344 501.508 685.981 511.475C687.094 515.638 689.791 525.313 691.901 532.878C694.831 543.43 695.829 547.885 696.064 551.933C696.239 554.805 697.119 573.685 698.056 593.795C699.346 621.763 699.931 630.558 700.519 631.085C701.104 631.67 706.674 631.965 722.676 632.258C742.021 632.668 744.189 632.61 744.894 631.73C745.539 630.968 745.831 621.41 746.476 584.298C747.004 553.163 747.531 534.46 748.176 527.6C748.644 521.97 750.286 503.208 751.751 485.97L754.389 454.603L753.744 349.653C753.099 237.372 752.749 209.874 751.926 208.584C751.516 207.88 712.009 207.763 494.239 207.587L237.016 207.411L236.079 209.053C235.551 209.932 233.969 212.805 232.561 215.385C231.156 217.965 228.401 223.124 226.349 226.818C224.356 230.512 221.191 236.375 219.314 239.835C216.851 244.525 215.564 246.284 214.331 246.812C213.159 247.281 207.299 247.339 192.466 247.046L172.243 246.577V244.349V242.063H192.349H212.396L222.596 223.183L232.796 204.362L231.389 201.665C229.984 199.027 229.924 198.968 226.466 198.616C220.194 197.971 205.949 197.502 205.304 197.971ZM737.331 242.121C735.806 253.906 732.641 284.688 728.246 330.01C727.424 338.218 726.486 347.308 726.194 350.238C724.024 369.88 721.796 388.348 720.274 398.845L718.574 411.098L723.906 429.04C726.839 438.89 730.531 451.438 732.174 456.948C733.756 462.4 735.984 469.788 737.039 473.365C738.094 476.883 740.204 484.035 741.726 489.138L744.484 498.518L743.426 563.775L742.371 629.033H733.521C728.714 629.033 719.804 628.858 713.824 628.623L702.921 628.27L702.569 618.83C702.336 613.613 701.514 595.32 700.694 578.14L699.229 546.83L691.844 520.095C687.799 505.378 683.871 491.073 683.109 488.315C682.406 485.56 679.356 474.655 676.426 464.1C673.494 453.49 671.091 444.343 671.091 443.698C671.091 443.053 672.324 438.655 673.789 433.905C677.891 420.655 686.099 391.808 696.004 355.515C708.724 309.138 717.106 281.288 722.149 268.154C724.786 261.411 738.679 228.577 738.856 228.753C738.914 228.812 738.211 234.851 737.331 242.121ZM735.866 342.91C736.394 360.148 737.039 381.548 737.271 390.4L737.741 406.525L735.161 425.58C733.756 436.018 732.524 444.695 732.406 444.813C732.231 444.928 731.996 444.518 731.821 443.933C731.646 443.345 729.359 435.665 726.779 426.813L722.031 410.805L723.791 398.083C726.429 379.555 727.191 373.28 730.004 346.135C730.941 337.398 733.756 308.493 733.874 306.265C734.224 301.163 735.044 316.643 735.866 342.91ZM282.859 371.638C299.856 375.568 320.784 380.315 329.341 382.25C337.901 384.185 350.151 387 356.601 388.408C363.049 389.873 370.961 391.69 374.186 392.453C377.411 393.215 387.844 395.56 397.341 397.73C431.221 405.41 468.679 413.913 474.719 415.32C478.119 416.083 489.196 418.603 499.339 420.89C509.479 423.175 518.214 425.17 518.624 425.345C519.151 425.523 517.216 426.928 513.934 428.805C510.944 430.563 508.071 432.205 507.604 432.44C506.666 433.028 507.251 435.548 508.366 435.548C508.776 435.548 519.679 429.45 532.691 422.063C545.646 414.615 556.609 408.578 557.019 408.578C557.429 408.578 567.571 410.923 579.586 413.853C591.664 416.728 601.569 419.13 601.629 419.13C601.861 419.13 603.034 423.763 605.204 433.495C606.316 438.655 607.666 444.4 608.076 446.278L608.896 449.678L605.556 451.848C603.739 453.02 600.749 454.778 598.991 455.775C597.231 456.773 588.264 462.05 579.059 467.503C569.856 472.895 559.599 478.993 556.199 480.988C552.799 482.98 544.124 488.14 536.854 492.42C529.586 496.76 522.374 500.98 520.734 501.918C519.151 502.798 509.889 508.25 500.216 514.055C490.544 519.803 482.514 524.433 482.396 524.315C482.279 524.2 484.449 520.505 487.144 516.05C489.841 511.593 496.231 501.215 501.271 492.89C506.314 484.623 510.594 477.528 510.769 477.06C510.944 476.648 510.476 475.945 509.771 475.475C508.659 474.773 508.424 474.773 508.014 475.475C507.721 475.945 505.316 479.873 502.621 484.213C499.924 488.55 492.479 500.688 486.089 511.183L474.424 530.238L474.074 567.763C473.839 588.4 473.664 610.388 473.604 616.545L473.546 627.86H465.339H457.131V622.993C457.131 620.355 457.541 608.805 458.011 597.313L458.831 576.44L451.504 555.978C447.459 544.72 442.889 531.938 441.304 527.6C439.721 523.26 436.321 513.763 433.684 506.493C431.046 499.223 427.471 489.313 425.771 484.505C418.971 465.275 419.499 466.563 418.209 466.975C417.506 467.15 416.801 467.503 416.626 467.738C416.391 467.913 419.499 477.175 423.484 488.258C427.529 499.34 430.694 508.485 430.579 508.603C430.461 508.72 414.984 507.9 396.109 506.785C377.294 505.613 344.231 503.678 322.659 502.388C301.089 501.098 282.974 500.16 282.506 500.335C281.979 500.513 278.286 505.555 274.241 511.593C270.196 517.633 261.169 531.118 254.076 541.613C247.041 552.108 231.741 574.975 220.076 592.33L198.914 623.933L188.481 623.58C182.736 623.405 177.929 623.17 177.754 623.053C177.636 622.878 180.391 615.548 183.909 606.695C187.426 597.84 191.999 586.29 194.109 580.955C196.219 575.62 201.554 562.193 205.949 551.053C214.274 530.063 225.119 502.68 239.069 467.503L247.216 446.98L248.096 428.805C248.624 418.778 249.444 401.13 249.914 389.523C250.794 369.528 251.144 364.603 251.671 364.603C251.789 364.603 265.799 367.77 282.859 371.638ZM237.839 454.018C238.601 455.13 239.244 456.363 239.304 456.773C239.361 457.653 230.101 481.34 229.806 481.045C229.514 480.695 235.729 451.965 236.079 451.965C236.314 451.965 237.076 452.903 237.839 454.018ZM310.761 505.085C318.321 505.438 318.791 505.555 319.084 506.728C319.201 507.373 320.549 519.803 322.016 534.343C323.481 548.825 325.709 570.87 326.939 583.3C329.226 605.523 330.984 628.153 330.456 628.68C330.281 628.858 326.646 629.033 322.366 629.093C316.271 629.15 314.394 628.975 314.101 628.388C313.691 627.625 309.176 612.088 297.689 571.868L293.701 557.795L294.171 551.933C294.464 548.708 294.934 536.98 295.344 525.84C295.696 514.7 296.164 505.26 296.281 504.793C296.456 504.205 297.279 504.088 299.624 504.323C301.264 504.558 306.306 504.85 310.761 505.085Z" fill="#FF4218"/>
<path d="M91.7593 289.374C90.5868 291.309 77.2803 324.611 77.2803 325.609C77.2803 326.724 79.0388 328.189 85.6628 332.821C90.235 336.046 97.035 340.794 100.728 343.434C104.421 346.071 107.821 348.124 108.349 348.006C108.817 347.831 114.386 346.246 120.659 344.371C126.931 342.554 136.193 339.856 141.175 338.449C153.192 334.989 154.071 334.696 154.071 334.111C154.071 333.816 152.899 331.764 151.551 329.596C150.144 327.426 146.392 321.504 143.227 316.521C129.451 294.651 128.689 293.596 127.751 293.946C123.589 295.589 112.335 298.931 111.162 298.931C110.342 298.931 106.062 296.761 101.549 294.181C92.404 288.846 92.1695 288.671 91.7593 289.374Z" fill="#FF4218"/>
<path d="M269.65 274.137V259.861H331.121V274.137H309.068V332.589H291.738V274.137H269.65Z" fill="white"/>
<path d="M337.705 332.589V259.861H367.748C373.193 259.861 377.892 260.844 381.846 262.809C385.823 264.75 388.889 267.544 391.044 271.19C393.198 274.812 394.275 279.109 394.275 284.08C394.275 289.123 393.174 293.408 390.972 296.935C388.771 300.439 385.646 303.114 381.597 304.961C377.549 306.784 372.755 307.695 367.215 307.695H348.217V293.846H363.948C366.6 293.846 368.813 293.503 370.589 292.816C372.388 292.106 373.749 291.04 374.673 289.62C375.596 288.176 376.058 286.329 376.058 284.08C376.058 281.831 375.596 279.973 374.673 278.505C373.749 277.013 372.388 275.901 370.589 275.167C368.79 274.409 366.576 274.031 363.948 274.031H355.284V332.589H337.705ZM378.65 299.35L396.761 332.589H377.585L359.829 299.35H378.65Z" fill="white"/>
<path d="M417.648 332.589H398.756L423.294 259.861H446.696L471.235 332.589H452.342L435.262 278.185H434.693L417.648 332.589ZM415.127 303.967H454.615V317.319H415.127V303.967Z" fill="white"/>
<path d="M539.662 286.211H521.907C521.67 284.388 521.185 282.743 520.451 281.275C519.717 279.807 518.746 278.552 517.539 277.511C516.331 276.469 514.899 275.676 513.242 275.131C511.608 274.563 509.797 274.279 507.809 274.279C504.281 274.279 501.239 275.143 498.682 276.871C496.149 278.6 494.196 281.097 492.823 284.364C491.474 287.631 490.799 291.585 490.799 296.225C490.799 301.055 491.485 305.103 492.858 308.37C494.255 311.613 496.208 314.064 498.718 315.721C501.251 317.354 504.246 318.171 507.702 318.171C509.644 318.171 511.407 317.923 512.993 317.425C514.603 316.928 516.012 316.206 517.219 315.259C518.45 314.289 519.456 313.117 520.238 311.744C521.043 310.347 521.599 308.772 521.907 307.021L539.662 307.127C539.355 310.347 538.42 313.519 536.857 316.644C535.318 319.769 533.199 322.622 530.501 325.202C527.802 327.759 524.511 329.795 520.628 331.31C516.769 332.826 512.342 333.583 507.347 333.583C500.766 333.583 494.871 332.139 489.662 329.251C484.478 326.339 480.382 322.101 477.376 316.538C474.369 310.974 472.866 304.203 472.866 296.225C472.866 288.223 474.393 281.441 477.447 275.877C480.501 270.314 484.632 266.088 489.84 263.2C495.048 260.311 500.884 258.867 507.347 258.867C511.751 258.867 515.823 259.483 519.563 260.714C523.304 261.921 526.594 263.697 529.435 266.04C532.276 268.361 534.584 271.213 536.36 274.599C538.135 277.984 539.236 281.855 539.662 286.211Z" fill="white"/>
<path d="M547.721 332.589V259.861H565.299V290.614H566.258L590.299 259.861H611.002L585.221 292.319L611.464 332.589H590.441L572.33 304.002L565.299 312.88V332.589H547.721Z" fill="white"/>
</g>
</g>
<path d="M157.061 85.9129H123.569C123.123 82.4745 122.207 79.3709 120.823 76.6023C119.439 73.8337 117.608 71.4669 115.33 69.5021C113.053 67.5372 110.351 66.0413 107.225 65.0142C104.144 63.9425 100.728 63.4066 96.9768 63.4066C90.3232 63.4066 84.585 65.0365 79.7622 68.2964C74.984 71.5562 71.3 76.2674 68.7099 82.4298C66.1646 88.5923 64.8919 96.0497 64.8919 104.802C64.8919 113.912 66.1869 121.548 68.7769 127.71C71.4116 133.828 75.0957 138.45 79.8292 141.576C84.6073 144.657 90.2562 146.198 96.7759 146.198C100.438 146.198 103.764 145.729 106.756 144.791C109.793 143.853 112.45 142.491 114.727 140.705C117.049 138.874 118.947 136.664 120.421 134.074C121.939 131.439 122.989 128.47 123.569 125.165L157.061 125.366C156.48 131.439 154.716 137.423 151.769 143.317C148.866 149.212 144.87 154.593 139.779 159.46C134.688 164.283 128.481 168.124 121.158 170.982C113.879 173.839 105.528 175.268 96.106 175.268C83.6918 175.268 72.5726 172.544 62.7485 167.096C52.9689 161.604 45.2435 153.611 39.5723 143.117C33.901 132.623 31.0654 119.851 31.0654 104.802C31.0654 89.7087 33.9457 76.9149 39.7063 66.4209C45.4668 55.9268 53.2592 47.9558 63.0834 42.5079C72.9076 37.0599 83.9151 34.3359 96.106 34.3359C104.412 34.3359 112.093 35.497 119.148 37.8191C126.204 40.0965 132.411 43.4456 137.77 47.8665C143.128 52.2428 147.482 57.6237 150.831 64.0095C154.18 70.3952 156.257 77.6964 157.061 85.9129Z" fill="#FF4218"/>
<path d="M198.435 173.393H162.8L209.085 36.2115H253.227L299.512 173.393H263.877L231.658 70.7748H230.587L198.435 173.393ZM193.679 119.405H268.164V144.59H193.679V119.405Z" fill="#FF4218"/>
<path d="M288.891 63.1387V36.2115H404.839V63.1387H363.242V173.393H330.554V63.1387H288.891Z" fill="#FF4218"/>
<path d="M416.544 63.1387V36.2115H532.492V63.1387H490.895V173.393H458.207V63.1387H416.544Z" fill="#FF4218"/>
<path d="M548.685 173.393V36.2115H581.842V146.466H638.911V173.393H548.685Z" fill="#FF4218"/>
<path d="M656.076 173.393V36.2115H751.728V63.1387H689.232V91.2716H746.838V118.266H689.232V146.466H751.728V173.393H656.076Z" fill="#FF4218"/>
</g>
<defs>
<clipPath id="clip0_1292_22139">
<rect width="783" height="689" fill="white" transform="translate(0.161133 0.585938)"/>
</clipPath>
<clipPath id="clip1_1292_22139">
<rect width="783" height="666" fill="white" transform="translate(0.319336 0.585938)"/>
</clipPath>
</defs>
</svg>
